# xmcd
# 
# Track frame offsets:
#     150
#     35986
#     75944
#     102601
#     150138
# 
# Disc length: 2571
# 
# Revision: 2
# Processed by: cddbd v1.5.2PL0 Copyright (c) Steve Scherf et al.
# Submitted via: BonkEnc v1.0.8
# 
DISCID=2f0a0905
DTITLE=Jimmy Smith - The Boss
DYEAR=1968
DGENRE=Soul Jazz
TTITLE0=Some Of My Best Friends Are Blues
TTITLE1=The Boss
TTITLE2=This Guy's In Love For You
TTITLE3=Fingers
TTITLE4=Tuxedo Junction
EXTD=featuring George Benson
EXTT0=
EXTT1=
EXTT2=
EXTT3=
EXTT4=
PLAYORDER=
